<svg width="17" height="17" viewBox="0 0 17 17" fill="none" xmlns="http://www.w3.org/2000/svg">
<path d="M7.28855 2.73416L1.28897 12.75C1.16527 12.9642 1.09982 13.2071 1.09913 13.4544C1.09843 13.7018 1.16252 13.945 1.28502 14.1599C1.40752 14.3749 1.58415 14.5539 1.79734 14.6794C2.01054 14.8048 2.25287 14.8723 2.50022 14.875H14.4994C14.7467 14.8723 14.9891 14.8048 15.2023 14.6794C15.4155 14.5539 15.5921 14.3749 15.7146 14.1599C15.8371 13.945 15.9012 13.7018 15.9005 13.4544C15.8998 13.2071 15.8343 12.9642 15.7106 12.75L9.71105 2.73416C9.58478 2.52598 9.40698 2.35387 9.19481 2.23442C8.98265 2.11497 8.74328 2.05222 8.4998 2.05222C8.25632 2.05222 8.01695 2.11497 7.80479 2.23442C7.59262 2.35387 7.41483 2.52598 7.28855 2.73416Z" stroke="black" stroke-opacity="0.68" stroke-width="2" stroke-linecap="round" stroke-linejoin="round"/>
<path d="M8.5 6.375V9.20833" stroke="black" stroke-opacity="0.68" stroke-width="2" stroke-linecap="round" stroke-linejoin="round"/>
<path d="M8.5 12.0417H8.50708" stroke="black" stroke-opacity="0.68" stroke-width="2" stroke-linecap="round" stroke-linejoin="round"/>
</svg>
