<svg width="58" height="58" viewBox="0 0 58 58" fill="none" xmlns="http://www.w3.org/2000/svg">
<path d="M53.6043 53.5554L55.8063 51.0207C58.7254 48.0976 58.7254 43.368 55.8063 40.4449C55.7315 40.3701 49.9081 35.8976 49.9081 35.8976C47.0049 33.1386 42.442 33.1455 39.5468 35.9124L34.9339 39.7925C27.3283 36.6508 21.2916 30.613 18.157 23.0146L22.0291 18.4244C24.8029 15.5341 24.8108 10.9778 22.0461 8.0784C22.0461 8.0784 17.5614 2.27289 17.4866 2.19814C14.6129 -0.68877 9.95011 -0.738546 7.01631 2.0872L4.2334 4.50297C-12.2099 23.547 23.1987 58.6213 42.9037 57.9916C46.9244 58.0154 50.7828 56.4151 53.6043 53.5554Z" fill="#6255A3"/>
<path d="M55.5812 26.5823C54.2447 26.5823 53.1613 25.5007 53.1613 24.1665C53.1511 13.4955 44.4881 4.84837 33.7989 4.83704C32.4625 4.83704 31.379 3.75543 31.379 2.42127C31.379 1.08711 32.4625 0.00561523 33.7989 0.00561523C47.1598 0.0203386 57.9863 10.8294 58.0011 24.1665C58.0011 25.5007 56.9176 26.5823 55.5812 26.5823Z" fill="#CADA31"/>
<path d="M48.3204 24.1665C48.3204 16.1604 41.8186 9.66968 33.7989 9.66968C32.4625 9.66968 31.379 10.7513 31.379 12.0854C31.379 13.4196 32.4625 14.5012 33.7989 14.5012C39.1458 14.5012 43.4795 18.8276 43.4795 24.1654C43.4795 25.4996 44.563 26.5812 45.8994 26.5812C47.2358 26.5812 48.3193 25.4996 48.3193 24.1654" fill="#CADA31"/>
</svg>
