<svg width="22" height="22" viewBox="0 0 22 22" fill="none" xmlns="http://www.w3.org/2000/svg">
<path d="M11 0C4.92465 0 0 4.92508 0 11C0 17.0749 4.92465 22 11 22C17.0754 22 22 17.0754 22 11C21.9936 4.92766 17.0723 0.00644531 11 0ZM11.9165 10.8891C11.9165 11.205 11.7541 11.4989 11.4864 11.6664L7.96641 13.8664C7.53586 14.1354 6.96953 14.0044 6.70055 13.5738C6.43157 13.1433 6.56262 12.5765 6.99316 12.308L10.083 10.3812V6.41652C10.083 5.91035 10.4934 5.5 10.9996 5.5C11.5057 5.5 11.9161 5.91035 11.9161 6.41652V10.8887L11.9165 10.8891Z" fill="#6255A3"/>
</svg>
