<svg width="58" height="58" viewBox="0 0 58 58" fill="none" xmlns="http://www.w3.org/2000/svg">
<path d="M48.0845 5.17199L29.9162 0.124045C29.3208 -0.0413482 28.6778 -0.0413482 28.0838 0.124045L9.91546 5.17199C3.99122 6.81232 -0.00543204 11.432 5.54163e-06 16.6339V28.9999C5.54163e-06 47.2769 26.6809 57.3716 27.8228 57.7918C28.5718 58.0694 29.4282 58.0694 30.1772 57.7918C31.3205 57.3716 58 47.2769 58 28.9999V16.6339C58.0054 11.432 54.0088 6.81119 48.0845 5.17199ZM42.6823 23.483L30.2928 33.8076C29.2692 34.6663 27.8744 35.1478 26.4212 35.1444H26.3261C24.843 35.1251 23.4333 34.6018 22.4259 33.6944L15.7391 27.8943C14.5646 26.9869 14.4966 25.4575 15.5855 24.4787C16.6744 23.5 18.5095 23.4433 19.6841 24.3507C19.767 24.4142 19.8445 24.4821 19.9179 24.5546L26.4253 30.2097L38.5701 20.0596C39.7229 19.1318 41.5581 19.159 42.6714 20.1185C43.7562 21.0553 43.7562 22.5405 42.6714 23.4762L42.6837 23.483H42.6823Z" fill="#CADA31"/>
</svg>
