<svg width="96" height="96" viewBox="0 0 96 96" fill="none" xmlns="http://www.w3.org/2000/svg">
<path d="M96 43.9996C96 48.4172 92.4187 52.0004 87.9994 52.0004H51.9994V35.8282C50.655 35.9313 49.3144 36.0007 48 36.0007C46.6856 36.0007 45.345 35.9332 44.0006 35.8282V52.0004H8.00062C3.58312 52.0004 0 48.4191 0 43.9996C0 35.1626 7.16438 27.9999 15.9994 27.9999H22.9519C18.3731 23.963 15.825 18.1016 15.9994 12.0002C15.9994 9.79144 17.79 8.00081 19.9988 8.00081C22.2075 8.00081 23.9981 9.79144 23.9981 12.0002C23.9981 22.4892 33.4819 26.1212 40.695 27.3643C38.0325 22.6449 36.4313 17.4022 35.9981 12.0002C35.9981 5.37198 41.37 0 47.9981 0C54.6263 0 59.9981 5.37198 59.9981 12.0002C59.5669 17.4022 57.9638 22.6449 55.3031 27.3643C62.5144 26.1212 71.9981 22.4873 71.9981 12.0002C71.9981 9.79144 73.7888 8.00081 75.9975 8.00081C78.2063 8.00081 79.9969 9.79144 79.9969 12.0002C80.1713 18.1016 77.6231 23.9649 73.0444 27.9999H79.9969C88.8338 27.9999 95.9962 35.1645 95.9962 43.9996M43.9969 11.9984C44.4788 16.2491 45.8419 20.3535 47.9962 24.0511C50.1506 20.3554 51.5137 16.2509 51.9956 11.9984C51.9956 9.78956 50.205 7.99894 47.9962 7.99894C45.7875 7.99894 43.9969 9.78956 43.9969 11.9984Z" fill="#6255A3"/>
<path d="M8.00049 59.9993H44.0005V96H28.0011C16.9555 96 8.00049 87.0448 8.00049 75.999V59.9993Z" fill="#CADA31"/>
<path d="M52.0012 96H68.0006C79.0462 96 88.0012 87.0448 88.0012 75.999V59.9993H52.0012V96Z" fill="#CADA31"/>
</svg>
