<svg width="34" height="34" viewBox="0 0 34 34" fill="none" xmlns="http://www.w3.org/2000/svg">
<path d="M26.6921 9.48421H8.29492V27.8779H26.6921V9.48421Z" fill="#CADA31"/>
<path d="M30.8789 7.908L20.9625 1.21749C18.5559 -0.40583 15.4448 -0.40583 13.0375 1.21749L3.12242 7.908C1.16742 9.22525 0 11.4209 0 13.7792V26.9178C0 30.8231 3.17754 34 7.08356 34H26.9171C30.8225 34 34 30.8231 34 26.9178V13.7792C34 11.4195 32.8326 9.22525 30.8789 7.908ZM17.7816 13.6318C17.9237 12.0895 18.7398 11.237 19.6416 11.3439C20.5434 11.4508 21.1896 12.4792 21.0488 14.0209C20.6298 17.7475 17.4954 17.2735 17.7816 13.6318ZM14.5443 11.3439C15.4481 11.237 16.2636 12.0895 16.4057 13.6318C16.6939 17.2701 13.5595 17.7489 13.1405 14.0209C12.9984 12.4805 13.6385 11.4527 14.5443 11.3439ZM9.22582 17.5543C9.08504 16.014 9.73117 14.9862 10.633 14.8773C11.5348 14.7704 12.3522 15.6229 12.493 17.1646C12.7772 20.8036 9.64484 21.2803 9.22582 17.5543ZM20.317 25.3681H20.3137C19.8382 25.3469 19.3667 25.2646 18.9132 25.1245C17.7378 24.754 16.4621 24.754 15.2847 25.1245C13.3563 25.7612 11.7632 25.1351 11.8349 23.4089C11.8382 20.856 14.444 18.351 17.0989 18.351C19.7539 18.351 22.3596 20.856 22.3596 23.4089C22.3596 24.3025 22.0057 25.3668 20.317 25.3681ZM24.7742 17.5523C24.3545 21.279 21.2208 20.8049 21.507 17.1632H21.509C21.6511 15.6209 22.4666 14.7684 23.3684 14.8753C24.2708 14.9822 24.9163 16.0106 24.7742 17.5523Z" fill="#6255A3"/>
</svg>
