<svg width="96" height="96" viewBox="0 0 96 96" fill="none" xmlns="http://www.w3.org/2000/svg">
<path d="M96.0021 39.9994V75.9994C96.0021 87.0281 87.0303 96 76.0018 96H20.0023C8.97376 96 0.0020752 87.0281 0.0020752 75.9994V39.9994H96.0002H96.0021ZM48.003 75.9994C48.003 73.7906 46.2143 72 44.0037 72H24.0035C21.791 72 20.0042 73.7925 20.0042 75.9994C20.0042 78.2063 21.7929 79.9988 24.0035 79.9988H44.0037C46.2162 79.9988 48.003 78.2063 48.003 75.9994ZM76.0018 60C76.0018 57.7912 74.2131 56.0007 72.0025 56.0007H24.0035C21.791 56.0007 20.0042 57.7931 20.0042 60C20.0042 62.2069 21.7929 63.9994 24.0035 63.9994H72.0025C74.215 63.9994 76.0018 62.2069 76.0018 60Z" fill="#6255A3"/>
<path d="M0.00321957 31.9988V27.9994C0.00321957 16.9706 8.9749 7.99878 20.0034 7.99878H24.0028V3.99939C24.0028 1.79064 25.7914 0 28.002 0C30.2126 0 32.0013 1.79251 32.0013 3.99939V7.99878H64.0013V3.99939C64.0013 1.79064 65.79 0 68.0006 0C70.2112 0 71.9999 1.79251 71.9999 3.99939V7.99878H75.9992C87.0277 7.99878 95.9995 16.9706 95.9995 27.9994V31.9988H0.00134277H0.00321957Z" fill="#CADA31"/>
</svg>
