<svg width="122" height="84" viewBox="0 0 122 84" fill="none" xmlns="http://www.w3.org/2000/svg">
<path d="M119.689 55.9183C121.172 54.363 121.993 52.311 122 50.1414C122.011 46.9301 120.169 44.0183 116.945 42.1516C114.847 40.9373 112.228 40.2071 109.939 40.1995H109.861C108.994 40.1995 108.16 40.2511 107.359 40.3543C107.464 40.2409 107.569 40.125 107.672 40.0082C110.526 36.7648 112.232 32.4323 112.352 28.1226C112.402 26.3507 112.264 24.7675 111.997 23.3535C112.758 22.7019 113.358 21.854 113.71 20.8716L115.558 15.7124C116.193 13.9396 115.936 11.9553 114.871 10.4025C113.809 8.85317 112.053 7.90121 110.177 7.85636C108.607 7.81828 105.985 7.98752 102.418 9.01226C101.238 9.35158 100.221 10.0429 99.4761 10.9593C98.8068 10.8713 98.1256 10.8248 97.4342 10.8248C96.6828 10.8248 95.9305 10.8798 95.185 10.9856C94.4995 10.0632 93.545 9.34227 92.4161 8.94879C89.0253 7.76497 86.4977 7.4595 84.9753 7.41211C83.1094 7.35203 81.312 8.20076 80.1697 9.6799C80.1163 9.74929 80.0647 9.81952 80.0148 9.89145C78.3892 9.14596 76.646 8.72286 74.8969 8.67378C74.7784 8.6704 74.6616 8.6687 74.544 8.6687C71.0406 8.6687 67.7142 10.1072 64.9386 12.7736C64.2887 8.74148 62.966 5.7045 60.9148 3.52471C58.8322 1.31107 56.0676 0.094251 52.9197 0.00624719C48.0658 -0.12999 43.1992 1.96264 38.4587 6.22406C37.1665 7.38588 35.953 8.64501 34.8258 9.9253C34.7184 9.76198 34.6118 9.60121 34.5034 9.44212C31.5095 5.04785 28.1356 2.76821 24.4749 2.66583C21.6587 2.58713 16.4891 3.68972 13.5037 11.9604C12.1421 15.7319 11.5751 20.0161 11.4981 22.7679C11.4237 25.4326 12.0405 30.7797 13.331 35.4422C13.3412 35.4786 13.3513 35.5141 13.3615 35.5505C12.5483 35.3 11.6758 35.1587 10.7568 35.1325C6.96323 35.025 3.63928 37.2192 2.08139 40.8603C1.69636 41.7632 0.52604 44.5108 0.113085 59.2193C0.104623 59.5282 0.0936219 59.859 0.0817748 60.2077C-0.00115464 62.7327 -0.113702 66.1911 0.27302 69.6469C0.814601 74.4778 2.20071 78.02 4.51258 80.4765C6.59597 82.6901 9.36057 83.9061 12.5085 83.9941C12.6566 83.9983 12.8047 84 12.9528 84C17.6603 84 22.3737 81.9074 26.9687 77.7763C28.2609 76.6145 29.4744 75.3553 30.6015 74.075C30.7081 74.2383 30.8156 74.3991 30.9239 74.5582C33.9178 78.9525 37.2917 81.2321 40.9525 81.3345C43.5994 81.409 48.3264 80.4384 51.3635 73.4522C54.1941 76.6601 58.0503 78.4253 62.3051 78.4405H62.3601C66.9822 78.4405 71.2649 76.4384 74.4458 72.7998C74.4797 72.8438 74.5135 72.8878 74.5482 72.931C77.4169 76.5214 81.483 78.5074 85.9976 78.5226H86.0526C90.5883 78.5226 94.7982 76.595 97.9597 73.0841C98.0257 73.272 98.0934 73.4599 98.1645 73.646C98.8068 75.3316 99.5616 76.6754 100.472 77.7551C102.069 79.648 104.19 80.6948 106.446 80.7024H106.481C109.366 80.7024 111.866 79.3815 113.341 77.0782C114.315 75.5576 114.812 73.6697 114.819 71.4662C114.821 70.906 114.77 70.2866 114.678 69.597C118.465 68.3785 120.734 65.4684 120.747 61.8086C120.753 59.8404 120.096 58.0659 118.894 56.6503C119.172 56.4252 119.438 56.1815 119.689 55.9175V55.9183ZM12.0312 73.4032C11.972 73.3397 11.8789 73.228 11.7655 73.0469C12.082 73.2982 12.3993 73.5039 12.7074 73.6722C12.2597 73.646 12.1429 73.5225 12.0304 73.4023L12.0312 73.4032ZM107.852 14.4524C108.063 14.4363 108.272 14.4355 108.478 14.4499C108.492 14.7257 108.479 15.005 108.44 15.2842C108.422 15.4095 108.399 15.533 108.371 15.6557C108.209 15.4721 108.048 15.2969 107.889 15.1336C107.689 14.9271 107.481 14.7283 107.27 14.5362C107.46 14.4964 107.654 14.4676 107.851 14.4524H107.852ZM86.0644 13.833C86.3301 13.8195 86.6001 13.8305 86.87 13.866C87.1298 13.8999 87.3828 13.9574 87.6274 14.0336C87.1137 14.4016 86.6178 14.7985 86.1457 15.2233C86.1186 15.181 86.0898 15.1387 86.0619 15.0964C86.05 15.0151 86.0407 14.9331 86.034 14.8501C86.0052 14.5066 86.0162 14.1656 86.0644 13.833ZM53.3978 10.5997C53.4571 10.6632 53.5501 10.7749 53.6635 10.956C53.347 10.7046 53.0297 10.499 52.7217 10.3306C53.1693 10.3569 53.2861 10.4804 53.3987 10.6006L53.3978 10.5997ZM52.0972 48.5598C52.087 48.5234 52.0769 48.4879 52.0667 48.4515C52.1446 48.4752 52.2233 48.4981 52.302 48.5201C52.2453 48.5759 52.1886 48.6318 52.1327 48.6885C52.1209 48.6461 52.1099 48.603 52.098 48.5598H52.0972Z" fill="#6255A3"/>
<path d="M62.3237 73.2804C56.0253 73.2584 52.1733 67.4663 52.1936 61.5726C52.247 46.2599 73.9855 43.1569 73.9246 60.492C73.9026 66.9061 69.0842 73.3033 62.3229 73.2804M58.0334 60.7839C58.0046 68.9894 67.66 67.6355 67.6845 60.4124C67.7099 53.1893 58.0596 52.9829 58.0334 60.7839Z" fill="#CADA31"/>
<path d="M86.0153 73.3625C79.7169 73.3405 75.8649 67.5484 75.8852 61.6546C75.9386 46.342 97.6771 43.239 97.6162 60.5741C97.5942 66.9882 92.7758 73.3854 86.0145 73.3625M81.725 60.866C81.6962 69.0715 91.3516 67.7176 91.3761 60.4945C91.4015 53.2714 81.7512 53.0649 81.725 60.866Z" fill="#CADA31"/>
<path d="M109.356 58.3037C111.609 58.3113 115.595 58.7294 115.585 61.7926C115.573 65.0859 110.95 65.1858 108.638 65.1773C108.864 66.6226 109.661 70.0065 109.657 71.4501C109.649 73.5885 108.949 75.5508 106.464 75.5423C103.286 75.5313 101.981 68.6789 101.642 66.3087C101.248 63.4181 99.3966 63.9893 99.4034 62.0828C99.4059 61.4473 99.6386 60.8702 100.045 60.4099C101.031 59.1998 100.634 57.1757 100.639 55.6738C100.661 49.4331 103.044 45.3392 109.92 45.3629C112.521 45.3722 116.848 47.1205 116.838 50.1253C116.832 51.8591 115.498 53.2985 113.765 53.2926C112.609 53.2883 111.513 52.7646 110.357 52.7612C109.259 52.7569 107.409 53.0396 107.404 54.4265C107.399 55.7558 107.453 57.0268 107.506 58.2986L109.355 58.3054L109.356 58.3037Z" fill="#CADA31"/>
<path d="M32.5529 53.1318C34.1116 53.1758 35.4309 54.2242 36.1079 55.634C37.0243 57.5565 37.6861 59.5138 38.3461 61.5142C40.8332 69.0453 42.2294 68.8735 42.4596 60.6604C42.5908 55.9852 41.4974 51.3599 40.0614 46.936C39.7517 45.9578 38.6761 45.2106 38.7058 44.158C38.743 42.8523 40.0826 41.6676 41.346 41.7023C46.7381 41.8538 48.8841 57.0463 48.7707 61.0902C48.6514 65.344 46.9107 76.3394 41.098 76.177C36.6757 76.0526 32.9777 68.1094 31.4748 64.5681C27.3935 70.3129 20.6153 79.0599 12.6541 78.8365C4.18763 78.5996 5.11001 65.2205 5.27418 59.3657C5.36557 56.1222 5.74891 45.4264 6.83207 42.8853C7.50904 41.3029 8.84522 40.2435 10.6147 40.2934C13.689 40.3789 14.5454 42.9327 14.4726 45.544C14.3592 49.588 13.6577 53.5727 13.5443 57.6158C13.2422 68.3988 13.909 74.6978 22.8324 63.1448C26.5947 58.2758 29.4388 53.0446 32.5554 53.1318" fill="#CADA31"/>
<path d="M32.8753 30.8702C31.3166 30.8262 29.9973 29.7778 29.3203 28.368C28.4039 26.4455 27.7421 24.4882 27.0821 22.4878C24.5951 14.9567 23.1988 15.1285 22.9686 23.3417C22.8375 28.0169 23.9308 32.6421 25.3668 37.066C25.6765 38.0442 26.7521 38.7914 26.7224 39.8441C26.6852 41.1497 25.3456 42.3344 24.0822 42.2997C18.6901 42.1482 16.5441 26.9557 16.6575 22.9118C16.7768 18.658 18.5175 7.66258 24.3302 7.82505C28.7525 7.94944 32.4505 15.8926 33.9534 19.4339C38.0347 13.6892 44.8129 4.94208 52.7742 5.16547C61.2406 5.40241 60.3182 18.7815 60.154 24.6363C60.0626 27.8798 59.6793 38.5756 58.5961 41.1167C57.9192 42.6991 56.583 43.7585 54.8135 43.7086C51.7392 43.6232 50.8829 41.0694 50.9556 38.458C51.069 34.4141 51.7705 30.4293 51.8839 26.3862C52.186 15.6032 51.5192 9.30419 42.5958 20.8572C38.8335 25.7262 35.9894 30.9574 32.8728 30.8702" fill="white"/>
<path d="M75.5738 34.0883C77.653 34.1467 79.1686 31.6453 81.1902 31.702C82.2877 31.7325 83.2981 32.8021 83.266 33.9571C83.1661 37.5382 77.7732 40.1622 74.6548 40.0742C68.012 39.8889 63.7005 32.8308 63.8706 26.7662C64.0255 21.2211 68.5731 13.6604 74.7539 13.833C79.26 13.9591 83.304 18.1765 83.178 22.6825C82.9969 29.1516 76.9489 30.4277 71.8082 30.2838C72.5782 31.6927 73.6682 34.0358 75.5747 34.0891M74.0092 25.9513C75.6838 25.9978 78.0786 25.1407 78.1328 23.1766C78.1667 21.9632 76.4759 20.413 75.3208 20.3808C73.5878 20.3326 71.6398 23.8621 71.3664 25.3573C72.2245 25.6704 73.0851 25.9259 74.0092 25.9513Z" fill="white"/>
<path d="M95.2814 40.4787C88.9847 40.3019 85.2766 34.4174 85.4416 28.5263C85.8698 13.2195 107.678 10.6505 107.193 27.9788C107.013 34.3904 102.039 40.6674 95.2814 40.4787ZM91.2983 27.8806C91.0681 36.0827 100.754 34.9666 100.956 27.7461C101.158 20.5264 91.5166 20.0821 91.2983 27.8806Z" fill="white"/>
<path d="M103.654 15.2656C104.852 16.0153 106.52 17.3168 107.543 19.2156C107.84 19.7665 108.639 19.7208 108.851 19.1319L110.699 13.9709C110.862 13.5148 110.535 13.0283 110.051 13.0164C108.934 12.9894 106.851 13.1095 103.843 13.9735C103.249 14.1444 103.129 14.9373 103.654 15.2656Z" fill="#CADA31"/>
<path d="M90.8278 15.0718C89.638 15.7268 87.9684 16.8852 86.8844 18.6512C86.5704 19.1632 85.8063 19.0769 85.6354 18.5006L84.1401 13.4514C84.0081 13.0054 84.3474 12.5553 84.8129 12.5705C85.8859 12.6043 87.8779 12.8311 90.7161 13.822C91.278 14.0183 91.3491 14.785 90.8286 15.0718" fill="#CADA31"/>
</svg>
