<svg width="34" height="34" viewBox="0 0 34 34" fill="none" xmlns="http://www.w3.org/2000/svg">
<path d="M16.9998 11.3362C13.5231 11.3362 10.7046 13.8723 10.7046 17.0007C10.7046 20.1291 13.5231 22.6651 16.9998 22.6651C20.4766 22.6651 23.2951 20.1291 23.2951 17.0007C23.2951 13.8723 20.4766 11.3362 16.9998 11.3362Z" fill="#CADA31"/>
<path d="M31.634 19.6908L30.9351 19.3282C31.2495 17.7876 31.2495 16.2084 30.9351 14.6672L31.634 14.3046C33.8945 13.1312 34.6702 10.5307 33.3661 8.49601C32.0621 6.46199 29.172 5.76408 26.9107 6.93748L26.2104 7.30138C24.8864 6.2847 23.3653 5.49644 21.7233 4.97648V4.25C21.7233 1.90254 19.6089 0 17 0C14.3911 0 12.2767 1.90254 12.2767 4.25V4.97648C10.6354 5.49843 9.11509 6.28934 7.79257 7.30868L7.08851 6.94146C4.82798 5.76807 1.93793 6.46531 0.633125 8.5C-0.67094 10.534 0.103971 13.1345 2.36524 14.3086L3.06413 14.6711C2.74974 16.2118 2.74974 17.7916 3.06413 19.3322L2.36524 19.6948C0.110613 20.8715 -0.662084 23.4666 0.636815 25.5C1.9394 27.534 4.82724 28.2326 7.08777 27.0605C7.08925 27.0599 7.09072 27.0592 7.0922 27.0579L7.79257 26.694C9.11509 27.712 10.6354 28.5016 12.2767 29.0229V29.75C12.2767 32.0975 14.3911 34 17 34C19.6089 34 21.7233 32.0975 21.7233 29.75V29.0235C23.3646 28.5016 24.8849 27.7107 26.2074 26.692L26.9115 27.0572C29.172 28.2306 32.0621 27.5334 33.3669 25.4987C34.6709 23.4646 33.896 20.8642 31.6348 19.6901M17.0007 25.4967C11.7852 25.4967 7.55788 21.6923 7.55788 17C7.55788 12.3077 11.786 8.50334 17.0007 8.50334C22.2155 8.50334 26.4436 12.3077 26.4436 17C26.4384 21.6909 22.2133 25.492 17.0007 25.4967Z" fill="#6255A3"/>
</svg>
