<svg width="34" height="34" viewBox="0 0 34 34" fill="none" xmlns="http://www.w3.org/2000/svg">
<path d="M16.9996 0C7.61561 0.00863262 0.0111771 6.33301 0 14.1382C0 17.7792 3.38906 23.4767 10.0746 31.0728C12.8665 34.2542 18.2299 34.9502 22.0549 32.628C22.771 32.193 23.4025 31.6684 23.9254 31.0728C30.6101 23.4767 34 17.7792 34 14.1382C33.9888 6.33368 26.3844 0.00863262 17.0004 0M17.0004 22.6035C11.3583 22.6035 6.78531 18.7992 6.78531 14.107C6.78531 9.41488 11.3591 5.61054 17.0004 5.61054C22.6417 5.61054 27.2155 9.41488 27.2155 14.107C27.2099 18.7979 22.6401 22.5989 17.0004 22.6035Z" fill="#6255A3"/>
<path d="M16.9995 8.4427C13.2384 8.4427 10.1895 10.9787 10.1895 14.107C10.1895 17.2354 13.2384 19.7713 16.9995 19.7713C20.7606 19.7713 23.8096 17.2354 23.8096 14.107C23.8096 10.9787 20.7606 8.4427 16.9995 8.4427Z" fill="#CADA31"/>
</svg>
